<?xml version="1.0" encoding="UTF-8"?>
<svg width="200px" height="200px" viewBox="0 0 200 200" version="1.1" xmlns="http://www.w3.org/2000/svg">
    <g stroke="none" stroke-width="1" fill="none" fill-rule="evenodd">
        <circle fill="#ECF0F1" cx="100" cy="100" r="100"/>
        <path d="M130,80 C130,69 121,60 110,60 C99,60 90,69 90,80 C90,91 99,100 110,100 C121,100 130,91 130,80 M70,80 C70,69 61,60 50,60 C39,60 30,69 30,80 C30,91 39,100 50,100 C61,100 70,91 70,80 M140,120 C140,109 131,100 120,100 C109,100 100,109 100,120 C100,131 109,140 120,140 C131,140 140,131 140,120 M100,120 C100,109 91,100 80,100 C69,100 60,109 60,120 C60,131 69,140 80,140 C91,140 100,131 100,120" fill="#4A90E2"/>
    </g>
</svg> 