<svg xmlns="http://www.w3.org/2000/svg" xmlns:xlink="http://www.w3.org/1999/xlink" width="500" zoomAndPan="magnify" viewBox="0 0 375 374.999991" height="500" preserveAspectRatio="xMidYMid meet" version="1.0"><defs><g/><clipPath id="aaa80c532b"><path d="M 171 253 L 191 253 L 191 273 L 171 273 Z M 171 253 " clip-rule="nonzero"/></clipPath><clipPath id="b0dbdbec11"><path d="M 171.375 249.316406 L 203.589844 256.46875 L 196.765625 287.222656 L 164.550781 280.070312 Z M 171.375 249.316406 " clip-rule="nonzero"/></clipPath><clipPath id="933a4284ab"><path d="M 171.375 249.316406 L 203.589844 256.46875 L 196.765625 287.222656 L 164.550781 280.070312 Z M 171.375 249.316406 " clip-rule="nonzero"/></clipPath><clipPath id="417c45bcb6"><path d="M 171.375 249.316406 L 203.589844 256.46875 L 196.765625 287.222656 L 164.550781 280.070312 Z M 171.375 249.316406 " clip-rule="nonzero"/></clipPath><clipPath id="9d2f9d8052"><path d="M 169 251 L 198 251 L 198 287 L 169 287 Z M 169 251 " clip-rule="nonzero"/></clipPath><clipPath id="ef4f465315"><path d="M 171.375 249.316406 L 203.589844 256.46875 L 196.765625 287.222656 L 164.550781 280.070312 Z M 171.375 249.316406 " clip-rule="nonzero"/></clipPath><clipPath id="617c15038e"><path d="M 171.375 249.316406 L 203.589844 256.46875 L 196.765625 287.222656 L 164.550781 280.070312 Z M 171.375 249.316406 " clip-rule="nonzero"/></clipPath><clipPath id="ecff73d3e3"><path d="M 171.375 249.316406 L 203.589844 256.46875 L 196.765625 287.222656 L 164.550781 280.070312 Z M 171.375 249.316406 " clip-rule="nonzero"/></clipPath></defs><path fill="#000000" d="M 197.371094 241.398438 C 198.960938 234.03125 198.65625 227.023438 196.746094 218.695312 C 205.589844 219.4375 214.058594 214.261719 216.578125 205.988281 C 216.914062 204.523438 216.273438 203.511719 215.765625 203.207031 C 213.753906 202.042969 211.117188 200.664062 209.511719 199.632812 C 207.078125 187.449219 203.019531 184.921875 194.398438 181.042969 L 194.363281 181.027344 C 193.5 180.605469 193.179688 179.761719 193.214844 178.972656 L 193.46875 173.984375 C 193.585938 171.808594 192.824219 171.152344 191.050781 171.300781 C 160.382812 176.613281 168.480469 208.566406 155.480469 221.242188 C 155.480469 221.242188 155.140625 203.292969 159.234375 189.082031 C 163.324219 174.875 170.628906 173.710938 170.324219 163.144531 C 169.460938 158.039062 167.804688 154.230469 165.351562 151.988281 C 152.625 140.375 134.972656 138.082031 134.636719 115.261719 C 134.585938 111.589844 143.019531 113.105469 149.480469 113.121094 C 155.9375 113.140625 163.867188 109.851562 170.558594 103.667969 C 177.253906 97.5 197.136719 98.847656 209.425781 103.230469 C 221.71875 107.613281 241.007812 131.359375 237.863281 136.667969 C 234.71875 141.960938 214.058594 153.941406 211.015625 154.433594 C 207.957031 154.921875 201.394531 145.871094 205.148438 136.601562 C 208.902344 127.332031 208.902344 124.078125 207.363281 119.34375 C 205.808594 114.621094 203.238281 112.195312 203.238281 112.195312 C 203.238281 112.195312 208.277344 120.773438 202.527344 133.601562 C 196.796875 146.425781 205.285156 160.734375 208.261719 160.144531 C 211.234375 159.574219 222.257812 153.691406 222.257812 153.691406 C 222.257812 153.691406 228.511719 184.347656 239.46875 200.242188 C 241.613281 203.359375 245.585938 208.011719 250.574219 213.671875 C 262.898438 199.871094 270.777344 181.953125 271.808594 162.050781 C 274.242188 115.582031 238.417969 75.960938 191.792969 73.550781 C 145.167969 71.140625 105.421875 106.851562 103.003906 153.335938 C 100.992188 192 125.457031 225.925781 160.570312 237.621094 C 167.667969 239.984375 175.191406 241.449219 183.035156 241.851562 C 188.363281 242.140625 193.164062 241.785156 197.371094 241.398438 Z M 175.902344 115.027344 C 178.152344 115.144531 179.890625 117.066406 179.773438 119.308594 C 179.65625 121.550781 177.726562 123.285156 175.480469 123.167969 C 173.230469 123.050781 171.488281 121.128906 171.609375 118.886719 C 171.726562 116.644531 173.652344 114.910156 175.902344 115.027344 Z M 197.964844 203.308594 C 195.851562 203.191406 194.226562 201.402344 194.347656 199.296875 C 194.449219 197.191406 196.257812 195.574219 198.371094 195.691406 C 200.484375 195.792969 202.105469 197.59375 201.988281 199.703125 C 201.871094 201.792969 200.078125 203.410156 197.964844 203.308594 Z M 197.964844 203.308594 " fill-opacity="1" fill-rule="evenodd"/><g fill="#000000" fill-opacity="1"><g transform="translate(90.404841, 285.109065)"><g><path d="M 3.984375 -1.90625 C 3.984375 -2.175781 3.882812 -6.164062 3.6875 -13.875 C 3.582031 -19.207031 3.664062 -23.535156 3.9375 -26.859375 C 3.988281 -27.429688 4.222656 -27.890625 4.640625 -28.234375 C 5.066406 -28.585938 5.5625 -28.753906 6.125 -28.734375 C 6.394531 -28.703125 6.648438 -28.617188 6.890625 -28.484375 C 10.054688 -29.128906 12.910156 -29.28125 15.453125 -28.9375 C 19.921875 -28.3125 22.816406 -26.28125 24.140625 -22.84375 C 24.660156 -21.195312 24.859375 -19.851562 24.734375 -18.8125 C 24.609375 -17.769531 24.296875 -16.832031 23.796875 -16 C 23.296875 -15.175781 22.660156 -14.507812 21.890625 -14 C 21.117188 -13.488281 20.335938 -13.078125 19.546875 -12.765625 C 18.765625 -12.453125 17.929688 -12.210938 17.046875 -12.046875 C 14.285156 -11.484375 11.210938 -11.390625 7.828125 -11.765625 C 7.960938 -6.578125 8.03125 -3.289062 8.03125 -1.90625 C 8.03125 -1.34375 7.832031 -0.863281 7.4375 -0.46875 C 7.050781 -0.0703125 6.570312 0.125 6 0.125 C 5.4375 0.125 4.957031 -0.0703125 4.5625 -0.46875 C 4.175781 -0.863281 3.984375 -1.34375 3.984375 -1.90625 Z M 7.75 -15.78125 C 7.914062 -15.8125 8.09375 -15.828125 8.28125 -15.828125 C 11.226562 -15.472656 13.878906 -15.539062 16.234375 -16.03125 C 19.015625 -16.59375 20.5 -17.675781 20.6875 -19.28125 C 20.75 -19.65625 20.628906 -20.359375 20.328125 -21.390625 C 19.597656 -23.335938 17.800781 -24.515625 14.9375 -24.921875 C 12.875 -25.191406 10.519531 -25.066406 7.875 -24.546875 C 7.738281 -22.171875 7.695312 -19.25 7.75 -15.78125 Z M 7.75 -15.78125 "/></g></g></g><g fill="#000000" fill-opacity="1"><g transform="translate(115.91868, 285.109065)"><g><path d="M 23.125 -0.15625 C 19.476562 -0.101562 13.734375 -0.144531 5.890625 -0.28125 C 5.347656 -0.28125 4.878906 -0.484375 4.484375 -0.890625 C 4.085938 -1.296875 3.890625 -1.769531 3.890625 -2.3125 C 3.734375 -2.632812 3.65625 -2.972656 3.65625 -3.328125 C 3.707031 -5.171875 3.734375 -7.820312 3.734375 -11.28125 C 3.734375 -14.738281 3.75 -17.09375 3.78125 -18.34375 C 3.78125 -18.800781 3.765625 -19.601562 3.734375 -20.75 C 3.703125 -21.90625 3.703125 -22.972656 3.734375 -23.953125 C 3.765625 -24.941406 3.847656 -25.867188 3.984375 -26.734375 C 4.035156 -27.117188 4.195312 -27.457031 4.46875 -27.75 C 4.738281 -28.050781 5.0625 -28.253906 5.4375 -28.359375 C 5.789062 -28.679688 6.222656 -28.859375 6.734375 -28.890625 C 8.734375 -28.941406 11.59375 -28.976562 15.3125 -29 C 19.03125 -29.03125 21.566406 -29.046875 22.921875 -29.046875 C 23.492188 -29.046875 23.972656 -28.847656 24.359375 -28.453125 C 24.753906 -28.066406 24.953125 -27.585938 24.953125 -27.015625 C 24.953125 -26.453125 24.753906 -25.972656 24.359375 -25.578125 C 23.972656 -25.191406 23.492188 -25 22.921875 -25 C 21.492188 -25 19.082031 -24.984375 15.6875 -24.953125 C 12.289062 -24.929688 9.671875 -24.90625 7.828125 -24.875 C 7.742188 -24.5 7.722656 -23.460938 7.765625 -21.765625 C 7.804688 -20.078125 7.828125 -18.910156 7.828125 -18.265625 L 7.828125 -16.59375 C 9.148438 -16.675781 10.5625 -16.71875 12.0625 -16.71875 C 13.570312 -16.71875 15.28125 -16.703125 17.1875 -16.671875 C 19.09375 -16.648438 20.503906 -16.640625 21.421875 -16.640625 C 21.992188 -16.640625 22.472656 -16.441406 22.859375 -16.046875 C 23.253906 -15.648438 23.453125 -15.164062 23.453125 -14.59375 C 23.453125 -14.03125 23.253906 -13.550781 22.859375 -13.15625 C 22.472656 -12.769531 21.992188 -12.578125 21.421875 -12.578125 C 20.472656 -12.578125 19.046875 -12.585938 17.140625 -12.609375 C 15.234375 -12.640625 13.535156 -12.65625 12.046875 -12.65625 C 10.554688 -12.65625 9.140625 -12.613281 7.796875 -12.53125 C 7.796875 -8.695312 7.78125 -5.953125 7.75 -4.296875 C 14.351562 -4.191406 19.453125 -4.164062 23.046875 -4.21875 C 23.617188 -4.21875 24.109375 -4.023438 24.515625 -3.640625 C 24.921875 -3.265625 25.125 -2.789062 25.125 -2.21875 C 25.125 -1.65625 24.929688 -1.171875 24.546875 -0.765625 C 24.171875 -0.359375 23.695312 -0.15625 23.125 -0.15625 Z M 23.125 -0.15625 "/></g></g></g><g fill="#000000" fill-opacity="1"><g transform="translate(142.649402, 285.109065)"><g><path d="M 13.921875 -2.03125 C 13.921875 -1.457031 13.71875 -0.984375 13.3125 -0.609375 C 12.90625 -0.234375 12.414062 -0.046875 11.84375 -0.046875 C 11.28125 -0.046875 10.804688 -0.25 10.421875 -0.65625 C 10.046875 -1.0625 9.859375 -1.546875 9.859375 -2.109375 C 9.890625 -3.054688 9.875 -6.882812 9.8125 -13.59375 C 9.789062 -18.488281 9.875 -22.273438 10.0625 -24.953125 C 7.113281 -24.984375 4.625 -24.957031 2.59375 -24.875 C 2.03125 -24.84375 1.546875 -25.023438 1.140625 -25.421875 C 0.734375 -25.816406 0.515625 -26.289062 0.484375 -26.84375 C 0.460938 -27.394531 0.644531 -27.875 1.03125 -28.28125 C 1.425781 -28.6875 1.894531 -28.90625 2.4375 -28.9375 C 4.757812 -29.007812 7.988281 -29.03125 12.125 -29 C 16.269531 -28.976562 19.503906 -28.984375 21.828125 -29.015625 C 22.398438 -29.015625 22.890625 -28.820312 23.296875 -28.4375 C 23.703125 -28.0625 23.90625 -27.585938 23.90625 -27.015625 C 23.90625 -26.453125 23.710938 -25.96875 23.328125 -25.5625 C 22.953125 -25.15625 22.476562 -24.953125 21.90625 -24.953125 C 19.988281 -24.929688 17.394531 -24.921875 14.125 -24.921875 C 13.9375 -22.316406 13.851562 -18.554688 13.875 -13.640625 C 13.925781 -6.898438 13.941406 -3.03125 13.921875 -2.03125 Z M 13.921875 -2.03125 "/></g></g></g><g fill="#000000" fill-opacity="1"><g transform="translate(167.028786, 285.109065)"><g/></g></g><g fill="#000000" fill-opacity="1"><g transform="translate(177.980679, 285.109065)"><g/></g></g><g fill="#000000" fill-opacity="1"><g transform="translate(188.932572, 285.109065)"><g/></g></g><g fill="#000000" fill-opacity="1"><g transform="translate(199.88615, 285.109065)"><g><path d="M 4.78125 -4.75 C 4 -5.914062 3.472656 -7.644531 3.203125 -9.9375 C 3.046875 -11.644531 3.003906 -13.660156 3.078125 -15.984375 C 3.140625 -17.503906 3.253906 -19.546875 3.421875 -22.109375 C 3.597656 -24.679688 3.703125 -26.347656 3.734375 -27.109375 C 3.734375 -27.671875 3.9375 -28.140625 4.34375 -28.515625 C 4.75 -28.898438 5.234375 -29.09375 5.796875 -29.09375 C 6.367188 -29.09375 6.84375 -28.890625 7.21875 -28.484375 C 7.601562 -28.078125 7.796875 -27.59375 7.796875 -27.03125 C 7.765625 -26.289062 7.660156 -24.625 7.484375 -22.03125 C 7.304688 -19.4375 7.191406 -17.378906 7.140625 -15.859375 C 7.054688 -13.703125 7.097656 -11.878906 7.265625 -10.390625 C 7.421875 -8.734375 7.703125 -7.609375 8.109375 -7.015625 C 9.054688 -5.660156 10.34375 -4.757812 11.96875 -4.3125 C 13.59375 -3.875 15.207031 -3.9375 16.8125 -4.5 C 18.425781 -5.070312 19.679688 -6.046875 20.578125 -7.421875 C 22.035156 -9.585938 22.804688 -12.550781 22.890625 -16.3125 C 22.910156 -17.664062 22.867188 -19.453125 22.765625 -21.671875 C 22.597656 -24.535156 22.503906 -26.320312 22.484375 -27.03125 C 22.484375 -27.59375 22.671875 -28.078125 23.046875 -28.484375 C 23.421875 -28.890625 23.894531 -29.09375 24.46875 -29.09375 C 25.039062 -29.09375 25.523438 -28.898438 25.921875 -28.515625 C 26.328125 -28.140625 26.53125 -27.671875 26.53125 -27.109375 C 26.5625 -26.453125 26.644531 -24.71875 26.78125 -21.90625 C 26.914062 -19.582031 26.96875 -17.675781 26.9375 -16.1875 C 26.832031 -11.675781 25.847656 -8 23.984375 -5.15625 C 22.953125 -3.613281 21.578125 -2.394531 19.859375 -1.5 C 18.140625 -0.601562 16.375 -0.101562 14.5625 0 C 12.75 0.101562 10.953125 -0.238281 9.171875 -1.03125 C 7.390625 -1.832031 5.925781 -3.070312 4.78125 -4.75 Z M 4.78125 -4.75 "/></g></g></g><g fill="#000000" fill-opacity="1"><g transform="translate(229.577933, 285.109065)"><g><path d="M 23.125 -0.15625 C 19.476562 -0.101562 13.734375 -0.144531 5.890625 -0.28125 C 5.347656 -0.28125 4.878906 -0.484375 4.484375 -0.890625 C 4.085938 -1.296875 3.890625 -1.769531 3.890625 -2.3125 C 3.734375 -2.632812 3.65625 -2.972656 3.65625 -3.328125 C 3.707031 -5.171875 3.734375 -7.820312 3.734375 -11.28125 C 3.734375 -14.738281 3.75 -17.09375 3.78125 -18.34375 C 3.78125 -18.800781 3.765625 -19.601562 3.734375 -20.75 C 3.703125 -21.90625 3.703125 -22.972656 3.734375 -23.953125 C 3.765625 -24.941406 3.847656 -25.867188 3.984375 -26.734375 C 4.035156 -27.117188 4.195312 -27.457031 4.46875 -27.75 C 4.738281 -28.050781 5.0625 -28.253906 5.4375 -28.359375 C 5.789062 -28.679688 6.222656 -28.859375 6.734375 -28.890625 C 8.734375 -28.941406 11.59375 -28.976562 15.3125 -29 C 19.03125 -29.03125 21.566406 -29.046875 22.921875 -29.046875 C 23.492188 -29.046875 23.972656 -28.847656 24.359375 -28.453125 C 24.753906 -28.066406 24.953125 -27.585938 24.953125 -27.015625 C 24.953125 -26.453125 24.753906 -25.972656 24.359375 -25.578125 C 23.972656 -25.191406 23.492188 -25 22.921875 -25 C 21.492188 -25 19.082031 -24.984375 15.6875 -24.953125 C 12.289062 -24.929688 9.671875 -24.90625 7.828125 -24.875 C 7.742188 -24.5 7.722656 -23.460938 7.765625 -21.765625 C 7.804688 -20.078125 7.828125 -18.910156 7.828125 -18.265625 L 7.828125 -16.59375 C 9.148438 -16.675781 10.5625 -16.71875 12.0625 -16.71875 C 13.570312 -16.71875 15.28125 -16.703125 17.1875 -16.671875 C 19.09375 -16.648438 20.503906 -16.640625 21.421875 -16.640625 C 21.992188 -16.640625 22.472656 -16.441406 22.859375 -16.046875 C 23.253906 -15.648438 23.453125 -15.164062 23.453125 -14.59375 C 23.453125 -14.03125 23.253906 -13.550781 22.859375 -13.15625 C 22.472656 -12.769531 21.992188 -12.578125 21.421875 -12.578125 C 20.472656 -12.578125 19.046875 -12.585938 17.140625 -12.609375 C 15.234375 -12.640625 13.535156 -12.65625 12.046875 -12.65625 C 10.554688 -12.65625 9.140625 -12.613281 7.796875 -12.53125 C 7.796875 -8.695312 7.78125 -5.953125 7.75 -4.296875 C 14.351562 -4.191406 19.453125 -4.164062 23.046875 -4.21875 C 23.617188 -4.21875 24.109375 -4.023438 24.515625 -3.640625 C 24.921875 -3.265625 25.125 -2.789062 25.125 -2.21875 C 25.125 -1.65625 24.929688 -1.171875 24.546875 -0.765625 C 24.171875 -0.359375 23.695312 -0.15625 23.125 -0.15625 Z M 23.125 -0.15625 "/></g></g></g><g fill="#000000" fill-opacity="1"><g transform="translate(256.308655, 285.109065)"><g><path d="M 11.8125 0.40625 C 9.882812 0.40625 8.148438 0.0351562 6.609375 -0.703125 C 5.066406 -1.453125 3.851562 -2.484375 2.96875 -3.796875 C 2.09375 -5.109375 1.65625 -6.601562 1.65625 -8.28125 C 1.65625 -8.925781 1.863281 -9.441406 2.28125 -9.828125 C 2.707031 -10.222656 3.207031 -10.421875 3.78125 -10.421875 C 4.207031 -10.421875 4.597656 -10.285156 4.953125 -10.015625 C 5.304688 -9.742188 5.519531 -9.34375 5.59375 -8.8125 C 5.976562 -5.320312 8.222656 -3.578125 12.328125 -3.578125 C 14.304688 -3.578125 15.863281 -4.007812 17 -4.875 C 18.132812 -5.738281 18.703125 -6.847656 18.703125 -8.203125 C 18.703125 -9.015625 18.3125 -9.695312 17.53125 -10.25 C 16.75 -10.800781 15.679688 -11.296875 14.328125 -11.734375 L 13.0625 -12.171875 C 10.382812 -13.066406 8.460938 -13.796875 7.296875 -14.359375 C 5.617188 -15.203125 4.367188 -16.191406 3.546875 -17.328125 C 2.722656 -18.460938 2.3125 -19.800781 2.3125 -21.34375 C 2.3125 -22.695312 2.742188 -23.992188 3.609375 -25.234375 C 4.472656 -26.484375 5.679688 -27.492188 7.234375 -28.265625 C 8.796875 -29.035156 10.535156 -29.421875 12.453125 -29.421875 C 14.453125 -29.421875 16.238281 -29.054688 17.8125 -28.328125 C 19.382812 -27.597656 20.601562 -26.625 21.46875 -25.40625 C 22.332031 -24.1875 22.765625 -22.882812 22.765625 -21.5 C 22.765625 -20.800781 22.566406 -20.253906 22.171875 -19.859375 C 21.785156 -19.472656 21.304688 -19.28125 20.734375 -19.28125 C 20.191406 -19.28125 19.726562 -19.472656 19.34375 -19.859375 C 18.96875 -20.253906 18.78125 -20.773438 18.78125 -21.421875 C 18.78125 -22.097656 18.488281 -22.753906 17.90625 -23.390625 C 17.332031 -24.023438 16.550781 -24.539062 15.5625 -24.9375 C 14.570312 -25.332031 13.492188 -25.53125 12.328125 -25.53125 C 10.328125 -25.53125 8.835938 -25.179688 7.859375 -24.484375 C 6.890625 -23.796875 6.378906 -22.84375 6.328125 -21.625 C 6.304688 -20.976562 6.507812 -20.410156 6.9375 -19.921875 C 7.375 -19.429688 8.050781 -18.929688 8.96875 -18.421875 C 9.832031 -17.960938 10.75 -17.535156 11.71875 -17.140625 C 12.695312 -16.753906 14 -16.289062 15.625 -15.75 C 17.789062 -15.019531 19.515625 -14.066406 20.796875 -12.890625 C 22.078125 -11.710938 22.71875 -10.1875 22.71875 -8.3125 C 22.71875 -6.582031 22.203125 -5.054688 21.171875 -3.734375 C 20.148438 -2.410156 18.804688 -1.390625 17.140625 -0.671875 C 15.484375 0.046875 13.707031 0.40625 11.8125 0.40625 Z M 11.8125 0.40625 "/></g></g></g><g fill="#000000" fill-opacity="1"><g transform="translate(280.848994, 285.109065)"><g><path d="M 13.921875 -2.03125 C 13.921875 -1.457031 13.71875 -0.984375 13.3125 -0.609375 C 12.90625 -0.234375 12.414062 -0.046875 11.84375 -0.046875 C 11.28125 -0.046875 10.804688 -0.25 10.421875 -0.65625 C 10.046875 -1.0625 9.859375 -1.546875 9.859375 -2.109375 C 9.890625 -3.054688 9.875 -6.882812 9.8125 -13.59375 C 9.789062 -18.488281 9.875 -22.273438 10.0625 -24.953125 C 7.113281 -24.984375 4.625 -24.957031 2.59375 -24.875 C 2.03125 -24.84375 1.546875 -25.023438 1.140625 -25.421875 C 0.734375 -25.816406 0.515625 -26.289062 0.484375 -26.84375 C 0.460938 -27.394531 0.644531 -27.875 1.03125 -28.28125 C 1.425781 -28.6875 1.894531 -28.90625 2.4375 -28.9375 C 4.757812 -29.007812 7.988281 -29.03125 12.125 -29 C 16.269531 -28.976562 19.503906 -28.984375 21.828125 -29.015625 C 22.398438 -29.015625 22.890625 -28.820312 23.296875 -28.4375 C 23.703125 -28.0625 23.90625 -27.585938 23.90625 -27.015625 C 23.90625 -26.453125 23.710938 -25.96875 23.328125 -25.5625 C 22.953125 -25.15625 22.476562 -24.953125 21.90625 -24.953125 C 19.988281 -24.929688 17.394531 -24.921875 14.125 -24.921875 C 13.9375 -22.316406 13.851562 -18.554688 13.875 -13.640625 C 13.925781 -6.898438 13.941406 -3.03125 13.921875 -2.03125 Z M 13.921875 -2.03125 "/></g></g></g><g fill="#000000" fill-opacity="1"><g transform="translate(305.22948, 285.109065)"><g/></g></g><g clip-path="url(#aaa80c532b)"><g clip-path="url(#b0dbdbec11)"><g clip-path="url(#933a4284ab)"><g clip-path="url(#417c45bcb6)"><path fill="#000000" d="M 189.234375 258.222656 C 187.882812 256.097656 185.78125 254.628906 183.320312 254.082031 C 180.855469 253.535156 178.332031 253.976562 176.207031 255.328125 C 171.820312 258.125 170.523438 263.96875 173.316406 268.355469 C 174.667969 270.480469 176.765625 271.949219 179.230469 272.496094 C 181.695312 273.042969 184.21875 272.601562 186.34375 271.25 C 188.464844 269.898438 189.933594 267.796875 190.480469 265.332031 C 191.027344 262.871094 190.585938 260.34375 189.234375 258.222656 Z M 185.941406 270.621094 C 183.984375 271.863281 181.660156 272.273438 179.390625 271.769531 C 177.125 271.265625 175.191406 269.910156 173.945312 267.957031 C 171.371094 263.914062 172.566406 258.53125 176.609375 255.960938 C 178.5625 254.714844 180.890625 254.308594 183.15625 254.808594 C 185.425781 255.3125 187.359375 256.667969 188.605469 258.621094 C 191.175781 262.664062 189.984375 268.046875 185.941406 270.621094 Z M 185.941406 270.621094 " fill-opacity="1" fill-rule="nonzero"/></g></g></g></g><g clip-path="url(#9d2f9d8052)"><g clip-path="url(#ef4f465315)"><g clip-path="url(#617c15038e)"><g clip-path="url(#ecff73d3e3)"><path fill="#000000" d="M 196.671875 282.941406 L 191.898438 275.449219 L 190.914062 273.898438 C 190.804688 273.734375 190.566406 273.679688 190.398438 273.785156 L 190.160156 273.9375 C 190.152344 273.890625 190.136719 273.84375 190.109375 273.800781 L 188.894531 271.894531 C 190.703125 270.296875 191.957031 268.179688 192.492188 265.777344 C 193.15625 262.777344 192.617188 259.703125 190.96875 257.117188 C 189.324219 254.53125 186.765625 252.738281 183.765625 252.074219 C 180.765625 251.40625 177.6875 251.949219 175.101562 253.59375 C 169.757812 256.996094 168.175781 264.117188 171.578125 269.464844 C 173.226562 272.050781 175.785156 273.839844 178.785156 274.503906 C 181.1875 275.039062 183.636719 274.796875 185.847656 273.835938 L 187.058594 275.742188 C 187.085938 275.785156 187.121094 275.820312 187.160156 275.847656 L 186.925781 275.996094 C 186.753906 276.109375 186.699219 276.339844 186.8125 276.511719 L 187.835938 278.121094 L 192.566406 285.554688 C 192.917969 286.101562 193.457031 286.484375 194.09375 286.625 C 194.726562 286.765625 195.378906 286.648438 195.925781 286.300781 C 197.054688 285.578125 197.390625 284.074219 196.671875 282.941406 Z M 172.207031 269.0625 C 169.027344 264.0625 170.503906 257.40625 175.503906 254.222656 C 177.921875 252.683594 180.796875 252.179688 183.601562 252.800781 C 186.40625 253.425781 188.800781 255.097656 190.339844 257.515625 C 191.878906 259.933594 192.382812 262.808594 191.761719 265.617188 C 191.136719 268.421875 189.464844 270.816406 187.046875 272.355469 C 184.628906 273.894531 181.753906 274.398438 178.945312 273.773438 C 176.140625 273.152344 173.746094 271.480469 172.207031 269.0625 Z M 187.691406 275.34375 L 186.523438 273.511719 C 186.839844 273.351562 187.148438 273.175781 187.445312 272.984375 C 187.746094 272.792969 188.039062 272.585938 188.316406 272.371094 L 189.480469 274.203125 C 189.507812 274.246094 189.542969 274.277344 189.578125 274.304688 L 187.742188 275.476562 C 187.734375 275.429688 187.714844 275.386719 187.691406 275.34375 Z M 190.484375 274.617188 L 191.074219 275.546875 L 188.257812 277.398438 L 187.640625 276.425781 Z M 195.523438 285.671875 C 195.144531 285.914062 194.691406 285.992188 194.253906 285.894531 C 193.8125 285.796875 193.4375 285.535156 193.199219 285.152344 L 188.660156 278.027344 L 191.476562 276.175781 L 196.039062 283.34375 C 196.539062 284.128906 196.308594 285.171875 195.523438 285.671875 Z M 195.523438 285.671875 " fill-opacity="1" fill-rule="nonzero"/></g></g></g></g></svg>